<svg width="1810" height="1262" viewBox="0 0 1810 1262" fill="none" xmlns="http://www.w3.org/2000/svg">
<path d="M27.6512 167.021L158.668 60V499.123H490.77V60L608.349 167.021V1085.58L472.053 1195V630.14H158.668V1195L43.4884 1085.58L27.6512 167.021Z" fill="black" stroke="black" stroke-width="53"/>
<path d="M717.5 1074.5V131V79H964L1115.5 164.5L1182 327.5L1115.5 501L996.5 594.5L1236.5 1100.5V1218L1136 1165L876.5 630H808.5V1165L717.5 1074.5Z" fill="black" stroke="black" stroke-width="53"/>
<path d="M1178.5 509L1332.5 117.5H1665L1733 269L1665 353.5L1461 338.5L1404 475.466L1782 617.5L1766 1031.5L1404 1221.5L1291 1031.5L1163.5 809.147L1158.5 627L1452 971.5L1588 893V765.5L1178.5 509Z" fill="black" stroke="black" stroke-width="53"/>
</svg>
